<mxfile host="app.diagrams.net" agent="Mozilla/5.0 (X11; Linux x86_64) AppleWebKit/537.36 (KHTML, like Gecko) Chrome/139.0.0.0 Safari/537.36" version="28.1.0">
  <diagram name="Page-1" id="uv9q5Jek9uqVAP1eean8">
    <mxGraphModel dx="1375" dy="1249" grid="1" gridSize="10" guides="1" tooltips="1" connect="1" arrows="1" fold="1" page="1" pageScale="1" pageWidth="583" pageHeight="827" math="0" shadow="0">
      <root>
        <mxCell id="0" />
        <mxCell id="1" parent="0" />
        <mxCell id="9ddQiIW5_2eRMiiQ06zU-1" value="mprj_io[23]" style="whiteSpace=wrap;html=1;aspect=fixed;fontSize=11;" vertex="1" parent="1">
          <mxGeometry width="60" height="60" as="geometry" />
        </mxCell>
        <mxCell id="9ddQiIW5_2eRMiiQ06zU-2" value="mprj_io[22&lt;span style=&quot;background-color: transparent; color: light-dark(rgb(0, 0, 0), rgb(255, 255, 255));&quot;&gt;]&lt;/span&gt;" style="whiteSpace=wrap;html=1;aspect=fixed;fontSize=11;" vertex="1" parent="1">
          <mxGeometry x="275" width="60" height="60" as="geometry" />
        </mxCell>
        <mxCell id="9ddQiIW5_2eRMiiQ06zU-3" value="mprj_io[21&lt;span style=&quot;background-color: transparent; color: light-dark(rgb(0, 0, 0), rgb(255, 255, 255));&quot;&gt;]&lt;/span&gt;" style="whiteSpace=wrap;html=1;aspect=fixed;fontSize=11;" vertex="1" parent="1">
          <mxGeometry x="550" width="60" height="60" as="geometry" />
        </mxCell>
        <mxCell id="9ddQiIW5_2eRMiiQ06zU-4" value="mprj_io[20&lt;span style=&quot;background-color: transparent; color: light-dark(rgb(0, 0, 0), rgb(255, 255, 255));&quot;&gt;]&lt;/span&gt;" style="whiteSpace=wrap;html=1;aspect=fixed;fontSize=11;" vertex="1" parent="1">
          <mxGeometry x="825" width="60" height="60" as="geometry" />
        </mxCell>
        <mxCell id="9ddQiIW5_2eRMiiQ06zU-5" value="mprj_io[19&lt;span style=&quot;background-color: transparent; color: light-dark(rgb(0, 0, 0), rgb(255, 255, 255));&quot;&gt;]&lt;/span&gt;" style="whiteSpace=wrap;html=1;aspect=fixed;fontSize=11;" vertex="1" parent="1">
          <mxGeometry x="1100" width="60" height="60" as="geometry" />
        </mxCell>
        <mxCell id="9ddQiIW5_2eRMiiQ06zU-6" value="DVSS" style="whiteSpace=wrap;html=1;aspect=fixed;fontSize=11;" vertex="1" parent="1">
          <mxGeometry x="1375" width="60" height="60" as="geometry" />
        </mxCell>
        <mxCell id="9ddQiIW5_2eRMiiQ06zU-7" value="mprj_io[18]" style="whiteSpace=wrap;html=1;aspect=fixed;fontSize=11;" vertex="1" parent="1">
          <mxGeometry x="1650" width="60" height="60" as="geometry" />
        </mxCell>
        <mxCell id="9ddQiIW5_2eRMiiQ06zU-8" value="mprj_io[17]" style="whiteSpace=wrap;html=1;aspect=fixed;fontSize=11;" vertex="1" parent="1">
          <mxGeometry x="1925" width="60" height="60" as="geometry" />
        </mxCell>
        <mxCell id="9ddQiIW5_2eRMiiQ06zU-9" value="mprj_io[16]" style="whiteSpace=wrap;html=1;aspect=fixed;fontSize=11;" vertex="1" parent="1">
          <mxGeometry x="2200" width="60" height="60" as="geometry" />
        </mxCell>
        <mxCell id="9ddQiIW5_2eRMiiQ06zU-10" value="DVSS" style="whiteSpace=wrap;html=1;aspect=fixed;fontSize=11;" vertex="1" parent="1">
          <mxGeometry x="2475" width="60" height="60" as="geometry" />
        </mxCell>
        <mxCell id="9ddQiIW5_2eRMiiQ06zU-11" value="mprj_io[15]" style="whiteSpace=wrap;html=1;aspect=fixed;fontSize=11;" vertex="1" parent="1">
          <mxGeometry x="2750" width="60" height="60" as="geometry" />
        </mxCell>
        <mxCell id="9ddQiIW5_2eRMiiQ06zU-12" value="mprj_io[14]" style="whiteSpace=wrap;html=1;aspect=fixed;fontSize=11;" vertex="1" parent="1">
          <mxGeometry x="3290.5" y="470.5" width="60" height="60" as="geometry" />
        </mxCell>
        <mxCell id="9ddQiIW5_2eRMiiQ06zU-13" value="DVDD" style="whiteSpace=wrap;html=1;aspect=fixed;fontSize=11;" vertex="1" parent="1">
          <mxGeometry x="3290.5" y="685.5" width="60" height="60" as="geometry" />
        </mxCell>
        <mxCell id="9ddQiIW5_2eRMiiQ06zU-14" value="mprj_io[13]" style="whiteSpace=wrap;html=1;aspect=fixed;fontSize=11;" vertex="1" parent="1">
          <mxGeometry x="3290.5" y="900.5" width="60" height="60" as="geometry" />
        </mxCell>
        <mxCell id="9ddQiIW5_2eRMiiQ06zU-15" value="DVDD" style="whiteSpace=wrap;html=1;aspect=fixed;fontSize=11;" vertex="1" parent="1">
          <mxGeometry x="3290.5" y="1115.5" width="60" height="60" as="geometry" />
        </mxCell>
        <mxCell id="9ddQiIW5_2eRMiiQ06zU-16" value="mprj_io[12]" style="whiteSpace=wrap;html=1;aspect=fixed;fontSize=11;" vertex="1" parent="1">
          <mxGeometry x="3290.5" y="1330.5" width="60" height="60" as="geometry" />
        </mxCell>
        <mxCell id="9ddQiIW5_2eRMiiQ06zU-17" value="mprj_io[11]" style="whiteSpace=wrap;html=1;aspect=fixed;fontSize=11;" vertex="1" parent="1">
          <mxGeometry x="3290.5" y="1545.5" width="60" height="60" as="geometry" />
        </mxCell>
        <mxCell id="9ddQiIW5_2eRMiiQ06zU-18" value="mprj_io[10]" style="whiteSpace=wrap;html=1;aspect=fixed;fontSize=11;" vertex="1" parent="1">
          <mxGeometry x="3290.5" y="1760.5" width="60" height="60" as="geometry" />
        </mxCell>
        <mxCell id="9ddQiIW5_2eRMiiQ06zU-19" value="mprj_io[9]" style="whiteSpace=wrap;html=1;aspect=fixed;fontSize=11;" vertex="1" parent="1">
          <mxGeometry x="3290.5" y="1975.5" width="60" height="60" as="geometry" />
        </mxCell>
        <mxCell id="9ddQiIW5_2eRMiiQ06zU-20" value="mprj_io[8]" style="whiteSpace=wrap;html=1;aspect=fixed;fontSize=11;" vertex="1" parent="1">
          <mxGeometry x="3290.5" y="2190.5" width="60" height="60" as="geometry" />
        </mxCell>
        <mxCell id="9ddQiIW5_2eRMiiQ06zU-21" value="mprj_io[7]" style="whiteSpace=wrap;html=1;aspect=fixed;fontSize=11;" vertex="1" parent="1">
          <mxGeometry x="3290.5" y="2405.5" width="60" height="60" as="geometry" />
        </mxCell>
        <mxCell id="9ddQiIW5_2eRMiiQ06zU-22" value="DVDD" style="whiteSpace=wrap;html=1;aspect=fixed;fontSize=11;" vertex="1" parent="1">
          <mxGeometry x="3290.5" y="2620.5" width="60" height="60" as="geometry" />
        </mxCell>
        <mxCell id="9ddQiIW5_2eRMiiQ06zU-23" value="DVSS" style="whiteSpace=wrap;html=1;aspect=fixed;fontSize=11;" vertex="1" parent="1">
          <mxGeometry x="3290.5" y="2835.5" width="60" height="60" as="geometry" />
        </mxCell>
        <mxCell id="9ddQiIW5_2eRMiiQ06zU-24" value="DVSS" style="whiteSpace=wrap;html=1;aspect=fixed;fontSize=11;" vertex="1" parent="1">
          <mxGeometry x="3290.5" y="3050.5" width="60" height="60" as="geometry" />
        </mxCell>
        <mxCell id="9ddQiIW5_2eRMiiQ06zU-25" value="mprj_io[6]" style="whiteSpace=wrap;html=1;aspect=fixed;fontSize=11;" vertex="1" parent="1">
          <mxGeometry x="3290.5" y="3265.5" width="60" height="60" as="geometry" />
        </mxCell>
        <mxCell id="9ddQiIW5_2eRMiiQ06zU-26" value="mprj_io[5]" style="whiteSpace=wrap;html=1;aspect=fixed;fontSize=11;" vertex="1" parent="1">
          <mxGeometry x="3290.5" y="3480.5" width="60" height="60" as="geometry" />
        </mxCell>
        <mxCell id="9ddQiIW5_2eRMiiQ06zU-27" value="mprj_io[4]" style="whiteSpace=wrap;html=1;aspect=fixed;fontSize=11;" vertex="1" parent="1">
          <mxGeometry x="3290.5" y="3695.5" width="60" height="60" as="geometry" />
        </mxCell>
        <mxCell id="9ddQiIW5_2eRMiiQ06zU-28" value="mprj_io[3]" style="whiteSpace=wrap;html=1;aspect=fixed;fontSize=11;" vertex="1" parent="1">
          <mxGeometry x="3290.5" y="3910.5" width="60" height="60" as="geometry" />
        </mxCell>
        <mxCell id="9ddQiIW5_2eRMiiQ06zU-29" value="mprj_io[2]" style="whiteSpace=wrap;html=1;aspect=fixed;fontSize=11;" vertex="1" parent="1">
          <mxGeometry x="3290.5" y="4125.5" width="60" height="60" as="geometry" />
        </mxCell>
        <mxCell id="9ddQiIW5_2eRMiiQ06zU-30" value="mprj_io[1]" style="whiteSpace=wrap;html=1;aspect=fixed;fontSize=11;" vertex="1" parent="1">
          <mxGeometry x="3290.5" y="4340.5" width="60" height="60" as="geometry" />
        </mxCell>
        <mxCell id="9ddQiIW5_2eRMiiQ06zU-31" value="mprj_io[0]" style="whiteSpace=wrap;html=1;aspect=fixed;fontSize=11;" vertex="1" parent="1">
          <mxGeometry x="3290.5" y="4555.5" width="60" height="60" as="geometry" />
        </mxCell>
        <mxCell id="9ddQiIW5_2eRMiiQ06zU-32" value="DVDD" style="whiteSpace=wrap;html=1;aspect=fixed;fontSize=11;" vertex="1" parent="1">
          <mxGeometry x="2755" y="5006" width="60" height="60" as="geometry" />
        </mxCell>
        <mxCell id="9ddQiIW5_2eRMiiQ06zU-33" value="DVSS" style="whiteSpace=wrap;html=1;aspect=fixed;fontSize=11;" vertex="1" parent="1">
          <mxGeometry x="2480" y="5006" width="60" height="60" as="geometry" />
        </mxCell>
        <mxCell id="9ddQiIW5_2eRMiiQ06zU-34" value="gpio" style="whiteSpace=wrap;html=1;aspect=fixed;fontSize=11;" vertex="1" parent="1">
          <mxGeometry x="2205" y="5006" width="60" height="60" as="geometry" />
        </mxCell>
        <mxCell id="9ddQiIW5_2eRMiiQ06zU-35" value="flash_io1" style="whiteSpace=wrap;html=1;aspect=fixed;fontSize=11;" vertex="1" parent="1">
          <mxGeometry x="1930" y="5006" width="60" height="60" as="geometry" />
        </mxCell>
        <mxCell id="9ddQiIW5_2eRMiiQ06zU-36" value="flash_io0" style="whiteSpace=wrap;html=1;aspect=fixed;fontSize=11;" vertex="1" parent="1">
          <mxGeometry x="1655" y="5006" width="60" height="60" as="geometry" />
        </mxCell>
        <mxCell id="9ddQiIW5_2eRMiiQ06zU-37" value="flash_clk" style="whiteSpace=wrap;html=1;aspect=fixed;fontSize=11;" vertex="1" parent="1">
          <mxGeometry x="1380" y="5006" width="60" height="60" as="geometry" />
        </mxCell>
        <mxCell id="9ddQiIW5_2eRMiiQ06zU-38" value="flash_csb" style="whiteSpace=wrap;html=1;aspect=fixed;fontSize=11;" vertex="1" parent="1">
          <mxGeometry x="1105" y="5006" width="60" height="60" as="geometry" />
        </mxCell>
        <mxCell id="9ddQiIW5_2eRMiiQ06zU-39" value="DVSS" style="whiteSpace=wrap;html=1;aspect=fixed;fontSize=11;" vertex="1" parent="1">
          <mxGeometry x="830" y="5006" width="60" height="60" as="geometry" />
        </mxCell>
        <mxCell id="9ddQiIW5_2eRMiiQ06zU-40" value="clock" style="whiteSpace=wrap;html=1;aspect=fixed;fontSize=11;" vertex="1" parent="1">
          <mxGeometry x="555" y="5006" width="60" height="60" as="geometry" />
        </mxCell>
        <mxCell id="9ddQiIW5_2eRMiiQ06zU-41" value="resetb" style="whiteSpace=wrap;html=1;aspect=fixed;fontSize=11;" vertex="1" parent="1">
          <mxGeometry x="280" y="5006" width="60" height="60" as="geometry" />
        </mxCell>
        <mxCell id="9ddQiIW5_2eRMiiQ06zU-42" value="DVSS" style="whiteSpace=wrap;html=1;aspect=fixed;fontSize=11;" vertex="1" parent="1">
          <mxGeometry x="5" y="5006" width="60" height="60" as="geometry" />
        </mxCell>
        <mxCell id="9ddQiIW5_2eRMiiQ06zU-43" value="DVDD" style="whiteSpace=wrap;html=1;aspect=fixed;fontSize=11;" vertex="1" parent="1">
          <mxGeometry x="-525" y="4575" width="60" height="60" as="geometry" />
        </mxCell>
        <mxCell id="9ddQiIW5_2eRMiiQ06zU-44" value="DVDD" style="whiteSpace=wrap;html=1;aspect=fixed;fontSize=11;" vertex="1" parent="1">
          <mxGeometry x="-525" y="4370" width="60" height="60" as="geometry" />
        </mxCell>
        <mxCell id="9ddQiIW5_2eRMiiQ06zU-45" value="mprj_io[37]" style="whiteSpace=wrap;html=1;aspect=fixed;fontSize=11;" vertex="1" parent="1">
          <mxGeometry x="-525" y="4165" width="60" height="60" as="geometry" />
        </mxCell>
        <mxCell id="9ddQiIW5_2eRMiiQ06zU-46" value="mprj_io[36]" style="whiteSpace=wrap;html=1;aspect=fixed;fontSize=11;" vertex="1" parent="1">
          <mxGeometry x="-525" y="3960" width="60" height="60" as="geometry" />
        </mxCell>
        <mxCell id="9ddQiIW5_2eRMiiQ06zU-47" value="mprj_io[35]" style="whiteSpace=wrap;html=1;aspect=fixed;fontSize=11;" vertex="1" parent="1">
          <mxGeometry x="-525" y="3755" width="60" height="60" as="geometry" />
        </mxCell>
        <mxCell id="9ddQiIW5_2eRMiiQ06zU-48" value="mprj_io[34]" style="whiteSpace=wrap;html=1;aspect=fixed;fontSize=11;" vertex="1" parent="1">
          <mxGeometry x="-525" y="3550" width="60" height="60" as="geometry" />
        </mxCell>
        <mxCell id="9ddQiIW5_2eRMiiQ06zU-49" value="mprj_io[33]" style="whiteSpace=wrap;html=1;aspect=fixed;fontSize=11;" vertex="1" parent="1">
          <mxGeometry x="-525" y="3345" width="60" height="60" as="geometry" />
        </mxCell>
        <mxCell id="9ddQiIW5_2eRMiiQ06zU-50" value="mprj_io[32]" style="whiteSpace=wrap;html=1;aspect=fixed;fontSize=11;" vertex="1" parent="1">
          <mxGeometry x="-525" y="3140" width="60" height="60" as="geometry" />
        </mxCell>
        <mxCell id="9ddQiIW5_2eRMiiQ06zU-51" value="DVSS" style="whiteSpace=wrap;html=1;aspect=fixed;fontSize=11;" vertex="1" parent="1">
          <mxGeometry x="-525" y="2935" width="60" height="60" as="geometry" />
        </mxCell>
        <mxCell id="9ddQiIW5_2eRMiiQ06zU-52" value="DVDD" style="whiteSpace=wrap;html=1;aspect=fixed;fontSize=11;" vertex="1" parent="1">
          <mxGeometry x="-525" y="2730" width="60" height="60" as="geometry" />
        </mxCell>
        <mxCell id="9ddQiIW5_2eRMiiQ06zU-53" value="mprj_io[31]" style="whiteSpace=wrap;html=1;aspect=fixed;fontSize=11;" vertex="1" parent="1">
          <mxGeometry x="-525" y="2525" width="60" height="60" as="geometry" />
        </mxCell>
        <mxCell id="9ddQiIW5_2eRMiiQ06zU-54" value="mprj_io[30]" style="whiteSpace=wrap;html=1;aspect=fixed;fontSize=11;" vertex="1" parent="1">
          <mxGeometry x="-525" y="2320" width="60" height="60" as="geometry" />
        </mxCell>
        <mxCell id="9ddQiIW5_2eRMiiQ06zU-55" value="mprj_io[29]" style="whiteSpace=wrap;html=1;aspect=fixed;fontSize=11;" vertex="1" parent="1">
          <mxGeometry x="-525" y="2115" width="60" height="60" as="geometry" />
        </mxCell>
        <mxCell id="9ddQiIW5_2eRMiiQ06zU-56" value="mprj_io[28]" style="whiteSpace=wrap;html=1;aspect=fixed;fontSize=11;" vertex="1" parent="1">
          <mxGeometry x="-525" y="1910" width="60" height="60" as="geometry" />
        </mxCell>
        <mxCell id="9ddQiIW5_2eRMiiQ06zU-57" value="mprj_io[27]" style="whiteSpace=wrap;html=1;aspect=fixed;fontSize=11;" vertex="1" parent="1">
          <mxGeometry x="-525" y="1705" width="60" height="60" as="geometry" />
        </mxCell>
        <mxCell id="9ddQiIW5_2eRMiiQ06zU-58" value="mprj_io[26]" style="whiteSpace=wrap;html=1;aspect=fixed;fontSize=11;" vertex="1" parent="1">
          <mxGeometry x="-525" y="1500" width="60" height="60" as="geometry" />
        </mxCell>
        <mxCell id="9ddQiIW5_2eRMiiQ06zU-59" value="mprj_io[25]" style="whiteSpace=wrap;html=1;aspect=fixed;fontSize=11;" vertex="1" parent="1">
          <mxGeometry x="-525" y="1295" width="60" height="60" as="geometry" />
        </mxCell>
        <mxCell id="9ddQiIW5_2eRMiiQ06zU-60" value="DVSS" style="whiteSpace=wrap;html=1;aspect=fixed;fontSize=11;" vertex="1" parent="1">
          <mxGeometry x="-525" y="1090" width="60" height="60" as="geometry" />
        </mxCell>
        <mxCell id="9ddQiIW5_2eRMiiQ06zU-61" value="DVDD" style="whiteSpace=wrap;html=1;aspect=fixed;fontSize=11;" vertex="1" parent="1">
          <mxGeometry x="-525" y="885" width="60" height="60" as="geometry" />
        </mxCell>
        <mxCell id="9ddQiIW5_2eRMiiQ06zU-62" value="DVDD" style="whiteSpace=wrap;html=1;aspect=fixed;fontSize=11;" vertex="1" parent="1">
          <mxGeometry x="-525" y="680" width="60" height="60" as="geometry" />
        </mxCell>
        <mxCell id="9ddQiIW5_2eRMiiQ06zU-63" value="mprj_io[24]" style="whiteSpace=wrap;html=1;aspect=fixed;fontSize=11;" vertex="1" parent="1">
          <mxGeometry x="-525" y="475" width="60" height="60" as="geometry" />
        </mxCell>
        <mxCell id="9ddQiIW5_2eRMiiQ06zU-65" value="" style="endArrow=classic;startArrow=classic;html=1;rounded=0;" edge="1" parent="1">
          <mxGeometry width="50" height="50" relative="1" as="geometry">
            <mxPoint x="70" y="60" as="sourcePoint" />
            <mxPoint x="70" as="targetPoint" />
          </mxGeometry>
        </mxCell>
        <mxCell id="9ddQiIW5_2eRMiiQ06zU-67" value="60" style="text;html=1;align=center;verticalAlign=middle;whiteSpace=wrap;rounded=0;" vertex="1" parent="1">
          <mxGeometry x="60" y="15" width="60" height="30" as="geometry" />
        </mxCell>
        <mxCell id="9ddQiIW5_2eRMiiQ06zU-68" value="" style="endArrow=classic;startArrow=classic;html=1;rounded=0;" edge="1" parent="1">
          <mxGeometry width="50" height="50" relative="1" as="geometry">
            <mxPoint y="-10" as="sourcePoint" />
            <mxPoint x="60" y="-10" as="targetPoint" />
          </mxGeometry>
        </mxCell>
        <mxCell id="9ddQiIW5_2eRMiiQ06zU-69" value="60" style="text;html=1;align=center;verticalAlign=middle;whiteSpace=wrap;rounded=0;" vertex="1" parent="1">
          <mxGeometry y="-40" width="60" height="30" as="geometry" />
        </mxCell>
        <mxCell id="9ddQiIW5_2eRMiiQ06zU-70" value="" style="endArrow=none;dashed=1;html=1;dashPattern=1 3;strokeWidth=2;rounded=0;" edge="1" parent="1">
          <mxGeometry width="50" height="50" relative="1" as="geometry">
            <mxPoint x="-525" y="460" as="sourcePoint" />
            <mxPoint x="-525" y="-290" as="targetPoint" />
          </mxGeometry>
        </mxCell>
        <mxCell id="9ddQiIW5_2eRMiiQ06zU-72" value="" style="endArrow=none;dashed=1;html=1;dashPattern=1 3;strokeWidth=2;rounded=0;" edge="1" parent="1">
          <mxGeometry width="50" height="50" relative="1" as="geometry">
            <mxPoint x="3350.19" y="460" as="sourcePoint" />
            <mxPoint x="3350.19" y="-290" as="targetPoint" />
          </mxGeometry>
        </mxCell>
        <mxCell id="9ddQiIW5_2eRMiiQ06zU-73" value="" style="endArrow=classic;startArrow=classic;html=1;rounded=0;" edge="1" parent="1">
          <mxGeometry width="50" height="50" relative="1" as="geometry">
            <mxPoint x="-520" y="-290" as="sourcePoint" />
            <mxPoint x="3350" y="-290" as="targetPoint" />
          </mxGeometry>
        </mxCell>
        <mxCell id="9ddQiIW5_2eRMiiQ06zU-74" value="3876" style="text;html=1;align=center;verticalAlign=middle;whiteSpace=wrap;rounded=0;fontSize=59;" vertex="1" parent="1">
          <mxGeometry x="1253" y="-390" width="410" height="140" as="geometry" />
        </mxCell>
        <mxCell id="9ddQiIW5_2eRMiiQ06zU-75" value="" style="endArrow=none;dashed=1;html=1;dashPattern=1 3;strokeWidth=2;rounded=0;" edge="1" parent="1">
          <mxGeometry width="50" height="50" relative="1" as="geometry">
            <mxPoint x="579.84" y="-10" as="sourcePoint" />
            <mxPoint x="579.84" y="-60" as="targetPoint" />
          </mxGeometry>
        </mxCell>
        <mxCell id="9ddQiIW5_2eRMiiQ06zU-76" value="" style="endArrow=none;dashed=1;html=1;dashPattern=1 3;strokeWidth=2;rounded=0;" edge="1" parent="1">
          <mxGeometry width="50" height="50" relative="1" as="geometry">
            <mxPoint x="854.8399999999999" y="-10" as="sourcePoint" />
            <mxPoint x="854.8399999999999" y="-60" as="targetPoint" />
          </mxGeometry>
        </mxCell>
        <mxCell id="9ddQiIW5_2eRMiiQ06zU-77" value="" style="endArrow=classic;startArrow=classic;html=1;rounded=0;" edge="1" parent="1">
          <mxGeometry width="50" height="50" relative="1" as="geometry">
            <mxPoint x="580" y="-60" as="sourcePoint" />
            <mxPoint x="850" y="-60" as="targetPoint" />
          </mxGeometry>
        </mxCell>
        <mxCell id="9ddQiIW5_2eRMiiQ06zU-78" value="275" style="text;html=1;align=center;verticalAlign=middle;whiteSpace=wrap;rounded=0;" vertex="1" parent="1">
          <mxGeometry x="690" y="-90" width="60" height="30" as="geometry" />
        </mxCell>
        <mxCell id="9ddQiIW5_2eRMiiQ06zU-79" value="" style="endArrow=none;dashed=1;html=1;dashPattern=1 3;strokeWidth=2;rounded=0;" edge="1" parent="1">
          <mxGeometry width="50" height="50" relative="1" as="geometry">
            <mxPoint x="3220" y="500.31" as="sourcePoint" />
            <mxPoint x="3280" y="500.31" as="targetPoint" />
          </mxGeometry>
        </mxCell>
        <mxCell id="9ddQiIW5_2eRMiiQ06zU-80" value="" style="endArrow=none;dashed=1;html=1;dashPattern=1 3;strokeWidth=2;rounded=0;" edge="1" parent="1">
          <mxGeometry width="50" height="50" relative="1" as="geometry">
            <mxPoint x="3220" y="715.31" as="sourcePoint" />
            <mxPoint x="3280" y="715.31" as="targetPoint" />
          </mxGeometry>
        </mxCell>
        <mxCell id="9ddQiIW5_2eRMiiQ06zU-81" value="" style="endArrow=classic;startArrow=classic;html=1;rounded=0;" edge="1" parent="1">
          <mxGeometry width="50" height="50" relative="1" as="geometry">
            <mxPoint x="3220" y="710" as="sourcePoint" />
            <mxPoint x="3220" y="500" as="targetPoint" />
          </mxGeometry>
        </mxCell>
        <mxCell id="9ddQiIW5_2eRMiiQ06zU-84" value="215" style="text;html=1;align=center;verticalAlign=middle;whiteSpace=wrap;rounded=0;" vertex="1" parent="1">
          <mxGeometry x="3170" y="580" width="60" height="30" as="geometry" />
        </mxCell>
        <mxCell id="9ddQiIW5_2eRMiiQ06zU-85" value="" style="endArrow=none;dashed=1;html=1;dashPattern=1 3;strokeWidth=2;rounded=0;" edge="1" parent="1">
          <mxGeometry width="50" height="50" relative="1" as="geometry">
            <mxPoint x="-450" y="504.87" as="sourcePoint" />
            <mxPoint x="-390" y="504.87" as="targetPoint" />
          </mxGeometry>
        </mxCell>
        <mxCell id="9ddQiIW5_2eRMiiQ06zU-86" value="" style="endArrow=none;dashed=1;html=1;dashPattern=1 3;strokeWidth=2;rounded=0;" edge="1" parent="1">
          <mxGeometry width="50" height="50" relative="1" as="geometry">
            <mxPoint x="-450" y="709.87" as="sourcePoint" />
            <mxPoint x="-390" y="709.87" as="targetPoint" />
          </mxGeometry>
        </mxCell>
        <mxCell id="9ddQiIW5_2eRMiiQ06zU-87" value="" style="endArrow=classic;startArrow=classic;html=1;rounded=0;" edge="1" parent="1">
          <mxGeometry width="50" height="50" relative="1" as="geometry">
            <mxPoint x="-390" y="710" as="sourcePoint" />
            <mxPoint x="-390" y="510" as="targetPoint" />
          </mxGeometry>
        </mxCell>
        <mxCell id="9ddQiIW5_2eRMiiQ06zU-89" value="205" style="text;html=1;align=center;verticalAlign=middle;whiteSpace=wrap;rounded=0;" vertex="1" parent="1">
          <mxGeometry x="-400" y="590" width="60" height="30" as="geometry" />
        </mxCell>
        <mxCell id="9ddQiIW5_2eRMiiQ06zU-90" value="" style="endArrow=none;dashed=1;html=1;dashPattern=1 3;strokeWidth=2;rounded=0;" edge="1" parent="1">
          <mxGeometry width="50" height="50" relative="1" as="geometry">
            <mxPoint x="34.84" y="5140" as="sourcePoint" />
            <mxPoint x="34.84" y="5080" as="targetPoint" />
          </mxGeometry>
        </mxCell>
        <mxCell id="9ddQiIW5_2eRMiiQ06zU-91" value="" style="endArrow=none;dashed=1;html=1;dashPattern=1 3;strokeWidth=2;rounded=0;" edge="1" parent="1">
          <mxGeometry width="50" height="50" relative="1" as="geometry">
            <mxPoint x="309.84" y="5140" as="sourcePoint" />
            <mxPoint x="309.84" y="5080" as="targetPoint" />
          </mxGeometry>
        </mxCell>
        <mxCell id="9ddQiIW5_2eRMiiQ06zU-92" value="" style="endArrow=classic;startArrow=classic;html=1;rounded=0;" edge="1" parent="1">
          <mxGeometry width="50" height="50" relative="1" as="geometry">
            <mxPoint x="40" y="5140" as="sourcePoint" />
            <mxPoint x="310" y="5140" as="targetPoint" />
          </mxGeometry>
        </mxCell>
        <mxCell id="9ddQiIW5_2eRMiiQ06zU-94" value="275" style="text;html=1;align=center;verticalAlign=middle;whiteSpace=wrap;rounded=0;" vertex="1" parent="1">
          <mxGeometry x="150" y="5110" width="60" height="30" as="geometry" />
        </mxCell>
        <mxCell id="9ddQiIW5_2eRMiiQ06zU-95" value="" style="endArrow=none;dashed=1;html=1;dashPattern=1 3;strokeWidth=2;rounded=0;" edge="1" parent="1">
          <mxGeometry width="50" height="50" relative="1" as="geometry">
            <mxPoint x="3370" y="470.5" as="sourcePoint" />
            <mxPoint x="3650" y="470" as="targetPoint" />
          </mxGeometry>
        </mxCell>
        <mxCell id="9ddQiIW5_2eRMiiQ06zU-96" value="" style="endArrow=none;dashed=1;html=1;dashPattern=1 3;strokeWidth=2;rounded=0;" edge="1" parent="1">
          <mxGeometry width="50" height="50" relative="1" as="geometry">
            <mxPoint x="3370" y="4615.5" as="sourcePoint" />
            <mxPoint x="3650" y="4615" as="targetPoint" />
          </mxGeometry>
        </mxCell>
        <mxCell id="9ddQiIW5_2eRMiiQ06zU-97" value="" style="endArrow=classic;startArrow=classic;html=1;rounded=0;" edge="1" parent="1">
          <mxGeometry width="50" height="50" relative="1" as="geometry">
            <mxPoint x="3640" y="4610" as="sourcePoint" />
            <mxPoint x="3640" y="470" as="targetPoint" />
          </mxGeometry>
        </mxCell>
        <mxCell id="9ddQiIW5_2eRMiiQ06zU-99" value="4145" style="text;html=1;align=center;verticalAlign=middle;whiteSpace=wrap;rounded=0;fontSize=59;" vertex="1" parent="1">
          <mxGeometry x="3540" y="2365.5" width="410" height="140" as="geometry" />
        </mxCell>
      </root>
    </mxGraphModel>
  </diagram>
</mxfile>
